<?xml version="1.0" encoding="UTF-8"?>
<!DOCTYPE svg PUBLIC "-//W3C//DTD SVG 1.1//EN" "http://www.w3.org/Graphics/SVG/1.1/DTD/svg11.dtd">
<svg xmlns="http://www.w3.org/2000/svg" version="1.1" width="600px" height="600px" style="shape-rendering:geometricPrecision; text-rendering:geometricPrecision; image-rendering:optimizeQuality; fill-rule:evenodd; clip-rule:evenodd" xmlns:xlink="http://www.w3.org/1999/xlink">
<g><path style="opacity:1" fill="#01aeef" d="M -0.5,-0.5 C 199.5,-0.5 399.5,-0.5 599.5,-0.5C 599.5,199.5 599.5,399.5 599.5,599.5C 399.5,599.5 199.5,599.5 -0.5,599.5C -0.5,399.5 -0.5,199.5 -0.5,-0.5 Z"/></g>
<g><path style="opacity:1" fill="#fefefe" d="M 200.5,232.5 C 221.16,230.406 235.66,238.739 244,257.5C 245.47,296.46 245.97,335.46 245.5,374.5C 238.5,374.5 231.5,374.5 224.5,374.5C 224.5,356.5 224.5,338.5 224.5,320.5C 213.833,320.5 203.167,320.5 192.5,320.5C 192.5,338.5 192.5,356.5 192.5,374.5C 185.5,374.5 178.5,374.5 171.5,374.5C 171.333,336.499 171.5,298.499 172,260.5C 176.786,246.212 186.286,236.879 200.5,232.5 Z"/></g>
<g><path style="opacity:1" fill="#fbfdfe" d="M 63.5,235.5 C 70.8333,235.5 78.1667,235.5 85.5,235.5C 85.5,253.167 85.5,270.833 85.5,288.5C 97.5046,288.667 109.505,288.5 121.5,288C 124.728,286.437 126.895,283.937 128,280.5C 128.5,265.504 128.667,250.504 128.5,235.5C 135.5,235.5 142.5,235.5 149.5,235.5C 149.667,250.837 149.5,266.17 149,281.5C 148.417,288.329 145.917,294.329 141.5,299.5C 145.054,303.942 147.554,308.942 149,314.5C 149.5,334.497 149.667,354.497 149.5,374.5C 142.5,374.5 135.5,374.5 128.5,374.5C 128.667,356.83 128.5,339.164 128,321.5C 126.465,315.965 122.965,312.465 117.5,311C 106.839,310.5 96.1719,310.333 85.5,310.5C 85.5,331.833 85.5,353.167 85.5,374.5C 78.1667,374.5 70.8333,374.5 63.5,374.5C 63.5,328.167 63.5,281.833 63.5,235.5 Z"/></g>
<g><path style="opacity:1" fill="#fdfefe" d="M 267.5,235.5 C 287.213,235.062 306.88,235.562 326.5,237C 346.699,244.555 355.199,259.055 352,280.5C 350.165,290.146 345.332,297.813 337.5,303.5C 344.523,308.532 349.356,315.199 352,323.5C 352.5,340.497 352.667,357.497 352.5,374.5C 345.5,374.5 338.5,374.5 331.5,374.5C 331.667,358.497 331.5,342.497 331,326.5C 327.674,318.507 321.841,313.341 313.5,311C 305.173,310.5 296.84,310.334 288.5,310.5C 288.5,331.833 288.5,353.167 288.5,374.5C 281.5,374.5 274.5,374.5 267.5,374.5C 267.5,328.167 267.5,281.833 267.5,235.5 Z"/></g>
<g><path style="opacity:1" fill="#fdfefe" d="M 403.5,235.5 C 418.833,235.5 434.167,235.5 449.5,235.5C 449.5,242.5 449.5,249.5 449.5,256.5C 435.496,256.333 421.496,256.5 407.5,257C 395.873,262.548 393.04,271.048 399,282.5C 400.938,285.106 403.438,286.939 406.5,288C 420.829,288.5 435.163,288.667 449.5,288.5C 449.5,295.833 449.5,303.167 449.5,310.5C 436.496,310.333 423.496,310.5 410.5,311C 395.731,318.641 392.231,329.808 400,344.5C 403.639,348.734 408.139,351.568 413.5,353C 425.495,353.5 437.495,353.667 449.5,353.5C 449.5,360.5 449.5,367.5 449.5,374.5C 436.163,374.667 422.829,374.5 409.5,374C 382.424,365.692 371.258,347.525 376,319.5C 378.614,312.557 382.447,306.391 387.5,301C 372.997,286.146 370.831,269.646 381,251.5C 386.891,243.813 394.391,238.48 403.5,235.5 Z"/></g>
<g><path style="opacity:1" fill="#fdfefe" d="M 509.5,352.5 C 517.65,353.493 525.983,353.826 534.5,353.5C 534.5,360.5 534.5,367.5 534.5,374.5C 525.494,374.666 516.494,374.5 507.5,374C 488.102,370.269 476.269,358.769 472,339.5C 471.5,304.835 471.333,270.168 471.5,235.5C 478.5,235.5 485.5,235.5 492.5,235.5C 492.333,269.502 492.5,303.502 493,337.5C 495.501,345.835 501.001,350.835 509.5,352.5 Z"/></g>
<g><path style="opacity:1" fill="#f48f21" d="M 556.5,277.5 C 549.5,277.5 542.5,277.5 535.5,277.5C 535.768,275.901 535.434,274.568 534.5,273.5C 531.641,262.884 524.641,257.217 513.5,256.5C 513.5,249.5 513.5,242.5 513.5,235.5C 539.728,237.395 554.061,251.395 556.5,277.5 Z"/></g>
<g><path style="opacity:1" fill="#06aeef" d="M 204.5,253.5 C 213.486,252.906 219.986,256.573 224,264.5C 224.5,276.162 224.667,287.829 224.5,299.5C 213.833,299.5 203.167,299.5 192.5,299.5C 192.333,287.829 192.5,276.162 193,264.5C 195.437,259.226 199.271,255.56 204.5,253.5 Z"/></g>
<g><path style="opacity:1" fill="#0cafef" d="M 288.5,256.5 C 299.896,256.091 311.23,256.591 322.5,258C 331.781,263.795 333.948,271.628 329,281.5C 327.833,284 326,285.833 323.5,287C 311.91,288.436 300.243,288.936 288.5,288.5C 288.5,277.833 288.5,267.167 288.5,256.5 Z"/></g>
<g><path style="opacity:1" fill="#8e9c78" d="M 534.5,273.5 C 535.434,274.568 535.768,275.901 535.5,277.5C 542.5,277.5 549.5,277.5 556.5,277.5C 549.352,278.492 542.019,278.825 534.5,278.5C 534.5,276.833 534.5,275.167 534.5,273.5 Z"/></g>
<g><path style="opacity:1" fill="#9edff8" d="M 509.5,352.5 C 518.167,352.5 526.833,352.5 535.5,352.5C 535.825,360.019 535.492,367.352 534.5,374.5C 534.5,367.5 534.5,360.5 534.5,353.5C 525.983,353.826 517.65,353.493 509.5,352.5 Z"/></g>
</svg>
