<?xml version="1.0" encoding="UTF-8"?>
<!DOCTYPE svg PUBLIC "-//W3C//DTD SVG 1.1//EN" "http://www.w3.org/Graphics/SVG/1.1/DTD/svg11.dtd">
<svg xmlns="http://www.w3.org/2000/svg" version="1.1" width="1512px" height="1512px" style="shape-rendering:geometricPrecision; text-rendering:geometricPrecision; image-rendering:optimizeQuality; fill-rule:evenodd; clip-rule:evenodd" xmlns:xlink="http://www.w3.org/1999/xlink">
<g><path style="opacity:0.999" fill="#005aff" d="M -0.5,-0.5 C 503.5,-0.5 1007.5,-0.5 1511.5,-0.5C 1511.5,503.5 1511.5,1007.5 1511.5,1511.5C 1007.5,1511.5 503.5,1511.5 -0.5,1511.5C -0.5,1007.5 -0.5,503.5 -0.5,-0.5 Z"/></g>
<g><path style="opacity:1" fill="#fcfdff" d="M 141.5,107.5 C 548.001,450.498 954.667,793.332 1361.5,1136C 1364.72,1139.55 1367.55,1143.39 1370,1147.5C 1371.16,1190.11 1371.66,1232.78 1371.5,1275.5C 1371.66,1318.54 1371.16,1361.54 1370,1404.5C 1026.38,1114.61 682.876,824.611 339.5,534.5C 338.5,811.666 338.167,1089 338.5,1366.5C 272.5,1366.5 206.5,1366.5 140.5,1366.5C 140.167,946.666 140.5,527 141.5,107.5 Z"/></g>
<g><path style="opacity:0.776" fill="#dbe8ff" d="M 339.5,534.5 C 339.5,812.167 339.5,1089.83 339.5,1367.5C 273.167,1367.5 206.833,1367.5 140.5,1367.5C 140.5,1367.17 140.5,1366.83 140.5,1366.5C 206.5,1366.5 272.5,1366.5 338.5,1366.5C 338.167,1089 338.5,811.666 339.5,534.5 Z"/></g>
<g><path style="opacity:0.886" fill="#2572ff" d="M 141.5,107.5 C 140.5,527 140.167,946.666 140.5,1366.5C 140.5,1366.83 140.5,1367.17 140.5,1367.5C 139.833,1157.5 139.5,947.334 139.5,737C 139.833,526.833 140.167,316.667 140.5,106.5C 141.107,106.624 141.44,106.957 141.5,107.5 Z"/></g>
</svg>
